# xmcd CD database file
#
# Track frame offsets:
#	150
#	21227
#	45234
#	63091
#	83683
#	101945
#	123842
#	143784
#	164251
#	180652
#	201140
#	221702
#	248726
#
# Disc length: 3562 seconds
#
# Revision: 0
# Processed by: cddbd v1.5PL3 Copyright (c) Steve Scherf et al.
# Submitted via: CDex 1.50beta8
#
DISCID=ac0de80d
DTITLE=CHARA - マドリガル
DYEAR=2001
DGENRE=
TTITLE0=ボクにうつして
TTITLE1=スカート(アルバム・ヴァージョン)
TTITLE2=悲しみと美
TTITLE3=キャラメルミルク
TTITLE4=ため息の実
TTITLE5=レモンキャンディ
TTITLE6=この遊びを恋とわらって
TTITLE7=心の木
TTITLE8=TADD
TTITLE9=ミシン
TTITLE10=イエローバルーン
TTITLE11=あたしのかわいい手
TTITLE12=スカート(オリジナル・ヴァージョン/ボーナス・トラック)
EXTD=YEAR: 2001
EXTT0=
EXTT1=
EXTT2=
EXTT3=
EXTT4=
EXTT5=
EXTT6=
EXTT7=
EXTT8=
EXTT9=
EXTT10=
EXTT11=
EXTT12=
PLAYORDER=
